<?xml version="1.0" ?><!DOCTYPE svg  PUBLIC '-//W3C//DTD SVG 1.1//EN'  'http://www.w3.org/Graphics/SVG/1.1/DTD/svg11.dtd'><svg enable-background="new 0 0 128 128" height="128px" id="Layer_1" version="1.1" viewBox="0 0 128 128" width="128px" xml:space="preserve" xmlns="http://www.w3.org/2000/svg" xmlns:xlink="http://www.w3.org/1999/xlink"><path d="M100.801,59.013l-0.762-46.725l-7.796,13.325c-6.644-3.855-16.646-6.538-28.255-6.538c-11.623,0-21.654,2.673-28.294,6.538  l-7.675-13.309L27.244,57.17l-0.874,35.83c0,0.01,0.002,0.02,0.002,0.03l-0.002,0.077c-0.057,2.355,1.623,5.088,3.735,6.133  l15.537,7.708c2.112,1.045,5.767,1.976,8.124,1.976h20.468c2.356,0,6.012-0.929,8.124-1.973l15.537-7.732  c2.112-1.045,3.793-3.841,3.735-6.196L100.801,59.013z M89.001,66.913l-18.77,4.079l-1.869-3.7l20.39-10.63L89.001,66.913z   M59.638,67.291l-1.869,3.7l-18.77-4.079l0.25-10.252L59.638,67.291z M95.153,93.882l-15.468,7.698  c-1.34,0.663-4.098,1.345-5.451,1.345H53.766c-1.351,0-4.108-0.683-5.464-1.354l-15.531-7.706c-0.1-0.084-0.344-0.473-0.401-0.705  l0.476-19.556l25.134,3.959L64,83.584l6.125-6.125l-0.01-0.02l25.04-3.854l0.475,19.501C95.577,93.318,95.334,93.724,95.153,93.882z  "/></svg>